<?xml version="1.0" standalone="no"?>
<!DOCTYPE svg PUBLIC "-//W3C//DTD SVG 20010904//EN"
 "http://www.w3.org/TR/2001/REC-SVG-20010904/DTD/svg10.dtd">
<svg version="1.0" xmlns="http://www.w3.org/2000/svg"
 width="1000.000000pt" height="330.000000pt" viewBox="0 0 1000.000000 330.000000"
 preserveAspectRatio="xMidYMid meet">

<g transform="translate(0.000000,330.000000) scale(0.100000,-0.100000)"
fill="#000000" stroke="none">
<path d="M1480 3294 c-557 -70 -1037 -409 -1287 -909 -450 -899 8 -1992 965
-2305 190 -62 285 -75 527 -74 177 0 226 3 310 22 338 73 600 215 841 456 236
237 373 483 450 811 27 114 29 132 29 355 0 223 -2 241 -29 355 -75 319 -207
563 -430 794 -237 244 -517 399 -853 472 -76 16 -141 21 -293 24 -107 2 -211
1 -230 -1z m398 -155 c569 -69 1075 -504 1237 -1065 79 -273 79 -575 1 -846
-145 -499 -559 -903 -1057 -1032 -243 -63 -514 -65 -751 -5 -269 67 -498 198
-698 399 -214 213 -345 453 -412 751 -20 90 -23 131 -23 309 0 178 3 219 23
309 67 298 198 538 412 751 339 340 779 489 1268 429z"/>
<path d="M1566 2526 c-48 -29 -88 -56 -88 -62 1 -5 118 -76 261 -159 l261
-150 0 -312 c0 -172 2 -313 5 -313 3 0 50 26 105 57 l100 57 0 316 0 316 -264
152 c-144 84 -269 152 -277 151 -8 0 -54 -24 -103 -53z"/>
<path d="M1132 2273 l-272 -158 0 -118 c0 -104 2 -118 16 -113 8 3 128 72 267
152 139 81 257 147 262 147 6 0 128 -68 272 -151 144 -84 264 -152 267 -152 3
0 6 53 6 118 l0 119 -267 154 c-146 85 -269 155 -272 157 -4 1 -129 -69 -279
-155z"/>
<path d="M2268 1919 l-3 -312 -268 -155 -268 -155 98 -58 c54 -32 103 -58 109
-59 6 0 130 69 275 153 l264 152 3 315 2 315 -97 55 c-53 30 -100 56 -105 58
-4 2 -9 -137 -10 -309z"/>
<path d="M1128 1963 l-268 -155 0 -308 c0 -234 3 -310 13 -318 14 -12 187
-112 193 -112 2 0 4 139 4 308 l0 308 270 154 c148 85 269 157 270 160 0 7
-197 120 -207 119 -4 0 -128 -70 -275 -156z"/>
<path d="M1235 1712 l-100 -58 0 -314 0 -315 264 -152 c145 -84 268 -153 273
-153 10 0 208 110 208 115 0 2 -69 42 -152 91 -84 48 -206 118 -270 156 l-118
69 -2 309 -3 310 -100 -58z"/>
<path d="M1400 1301 l0 -121 38 -23 c20 -13 141 -83 269 -156 l232 -133 255
147 c140 81 262 152 271 158 13 10 15 31 13 130 l-3 117 -268 -155 -269 -155
-261 151 c-144 83 -265 153 -269 156 -5 2 -8 -50 -8 -116z"/>
<path d="M9410 2900 c-175 -28 -297 -125 -351 -279 -23 -64 -24 -76 -27 -501
-2 -291 0 -456 8 -500 38 -224 207 -351 465 -351 252 0 421 116 464 319 15 73
15 901 0 974 -25 115 -93 218 -181 274 -87 55 -254 84 -378 64z m258 -142 c75
-28 143 -96 168 -169 18 -50 19 -88 19 -504 0 -331 -3 -461 -12 -491 -41 -134
-165 -208 -343 -207 -145 2 -258 63 -311 170 l-24 48 0 480 c0 439 2 483 18
518 24 52 83 114 131 140 97 50 243 56 354 15z"/>
<path d="M4607 2863 c-3 -5 -114 -348 -246 -763 -133 -415 -246 -767 -251
-782 l-9 -28 67 0 67 0 86 273 87 272 259 3 259 2 90 -275 89 -275 69 0 c50 0
67 3 64 13 -3 6 -119 362 -258 790 l-253 777 -58 0 c-32 0 -60 -3 -62 -7z
m168 -533 c59 -184 110 -340 112 -347 4 -10 -41 -13 -217 -13 -173 0 -221 3
-218 13 2 6 51 164 108 349 57 186 105 337 106 335 1 -1 50 -153 109 -337z"/>
<path d="M5440 2081 l0 -791 65 0 65 0 0 275 0 275 250 2 c138 1 258 2 267 2
13 1 37 -58 112 -276 l95 -278 63 0 c35 0 63 1 63 3 0 1 -45 136 -99 300 -55
163 -96 297 -92 297 5 0 29 18 54 41 97 85 143 253 134 484 -9 224 -90 365
-246 427 -54 22 -70 23 -393 26 l-338 3 0 -790z m696 642 c61 -33 111 -97 134
-171 23 -74 28 -273 9 -364 -21 -100 -90 -186 -166 -207 -22 -6 -145 -11 -290
-11 l-253 0 0 391 0 390 263 -3 c248 -3 264 -4 303 -25z"/>
<path d="M6710 2080 l0 -790 283 0 c308 0 375 8 466 55 96 48 156 126 186 242
22 85 22 842 0 928 -32 125 -108 231 -206 288 -94 56 -175 67 -466 67 l-263 0
0 -790z m548 665 c79 -19 113 -36 169 -88 55 -51 89 -115 103 -198 17 -95 8
-821 -10 -871 -20 -55 -66 -105 -122 -134 -78 -40 -178 -54 -379 -54 l-179 0
0 680 0 680 178 0 c121 0 197 -5 240 -15z"/>
<path d="M8020 2080 l0 -790 375 0 375 0 0 55 0 55 -315 0 -315 0 0 350 0 350
197 2 196 3 12 35 c7 19 15 45 19 58 l7 22 -215 0 -216 0 0 265 0 265 315 0
315 0 0 60 0 60 -375 0 -375 0 0 -790z"/>
<path d="M4787 873 c-4 -3 -7 -91 -7 -195 l0 -188 25 0 c16 0 25 6 25 15 0 12
4 11 20 -5 35 -35 88 -22 115 30 19 37 20 150 0 195 -18 44 -58 62 -95 43 -14
-7 -28 -14 -32 -16 -5 -2 -8 26 -8 62 0 57 -2 66 -18 66 -10 0 -22 -3 -25 -7z
m123 -153 c19 -12 27 -139 11 -169 -14 -25 -53 -28 -72 -5 -16 20 -17 132 -1
162 13 23 37 28 62 12z"/>
<path d="M5910 685 l0 -195 25 0 25 0 0 195 0 195 -25 0 -25 0 0 -195z"/>
<path d="M6027 873 c-4 -3 -7 -17 -7 -30 0 -18 5 -23 25 -23 21 0 25 5 25 30
0 22 -5 30 -18 30 -10 0 -22 -3 -25 -7z"/>
<path d="M6750 850 c0 -25 4 -30 25 -30 21 0 25 5 25 30 0 25 -4 30 -25 30
-21 0 -25 -5 -25 -30z"/>
<path d="M4104 843 c3 -10 22 -93 42 -185 l38 -168 32 0 c36 0 34 -8 70 197
l18 102 22 -112 c12 -62 24 -129 28 -149 6 -35 10 -38 41 -38 30 0 34 4 40 33
4 17 22 99 41 180 19 82 34 150 34 153 0 2 -11 4 -24 4 -22 0 -25 -8 -50 -132
-15 -73 -32 -142 -36 -153 -8 -18 -9 -18 -9 5 -1 22 -32 196 -46 258 -4 17
-13 22 -35 22 -16 0 -31 -4 -34 -9 -3 -4 -16 -70 -28 -145 -13 -75 -25 -136
-28 -136 -3 0 -16 55 -29 123 -31 158 -34 167 -66 167 -20 0 -25 -4 -21 -17z"/>
<path d="M6626 834 c-3 -9 -6 -27 -6 -40 0 -15 -6 -24 -15 -24 -8 0 -15 -9
-15 -19 0 -10 7 -21 15 -25 12 -4 15 -26 15 -109 0 -90 3 -106 19 -121 11 -10
30 -16 43 -14 30 4 36 34 9 43 -19 6 -21 14 -21 106 0 92 1 99 20 99 13 0 20
7 20 20 0 13 -7 20 -20 20 -17 0 -20 7 -20 40 0 33 -4 40 -19 40 -10 0 -22 -7
-25 -16z"/>
<path d="M4600 771 c-14 -4 -35 -22 -48 -41 -21 -31 -23 -44 -20 -113 3 -74 5
-81 36 -108 44 -40 93 -40 133 0 37 37 39 71 4 71 -14 0 -25 -6 -25 -13 0 -23
-34 -47 -57 -41 -20 6 -43 42 -43 69 0 12 16 15 75 15 l75 0 0 39 c0 62 -19
101 -56 117 -36 15 -37 15 -74 5z m70 -67 c16 -41 13 -44 -41 -44 -48 0 -50 1
-43 23 10 34 24 47 50 47 17 0 28 -8 34 -26z"/>
<path d="M5215 773 c-31 -8 -55 -34 -55 -60 0 -30 45 -33 53 -3 7 27 53 27 67
1 20 -38 12 -49 -36 -57 -65 -9 -96 -39 -98 -93 0 -34 4 -47 23 -62 27 -22 68
-24 95 -4 16 12 21 12 40 0 11 -8 29 -15 39 -15 24 0 33 28 14 43 -12 9 -16
36 -19 109 -2 82 -6 101 -23 117 -21 22 -67 33 -100 24z m71 -190 c-15 -60
-86 -80 -86 -24 0 36 17 51 58 51 32 0 34 -2 28 -27z"/>
<path d="M5500 773 c-8 -3 -23 -12 -32 -21 -16 -14 -18 -13 -18 1 0 10 -8 17
-20 17 -19 0 -20 -7 -20 -191 l0 -190 23 3 c19 3 23 10 27 55 4 44 8 51 20 43
49 -31 104 8 120 85 24 118 -29 223 -100 198z m40 -62 c5 -11 10 -47 10 -81 0
-73 -12 -100 -45 -100 -33 0 -45 27 -45 100 0 73 12 100 45 100 14 0 29 -8 35
-19z"/>
<path d="M5750 773 c-8 -3 -23 -12 -32 -21 -16 -14 -18 -13 -18 1 0 10 -8 17
-20 17 -19 0 -20 -7 -20 -190 l0 -190 25 0 c24 0 25 3 25 60 l0 59 28 -16 c43
-25 79 -11 102 40 32 68 22 185 -18 219 -21 19 -52 28 -72 21z m41 -60 c9 -10
14 -41 14 -83 0 -74 -13 -100 -51 -100 -31 0 -44 32 -44 103 0 81 45 125 81
80z"/>
<path d="M6193 770 c-78 -33 -84 -244 -7 -279 58 -26 118 4 130 67 6 29 4 32
-20 32 -19 0 -26 -5 -26 -19 0 -27 -26 -50 -50 -44 -39 10 -52 149 -18 190 20
24 52 11 63 -24 7 -26 15 -33 33 -33 23 0 24 3 19 37 -4 20 -14 45 -24 55 -22
22 -71 31 -100 18z"/>
<path d="M6410 762 c-25 -12 -36 -25 -38 -44 -3 -24 0 -28 21 -28 16 0 26 7
30 20 7 27 53 27 67 1 20 -38 12 -49 -36 -57 -66 -10 -97 -39 -97 -94 0 -33 6
-48 23 -62 27 -22 68 -23 98 -2 20 14 24 14 38 0 8 -9 24 -16 35 -16 26 0 37
30 16 42 -14 7 -17 26 -17 98 0 103 -11 135 -53 150 -40 13 -46 13 -87 -8z
m90 -172 c0 -12 -11 -32 -24 -45 -31 -31 -66 -24 -66 14 0 36 17 51 57 51 27
0 33 -4 33 -20z"/>
<path d="M6920 763 c-40 -21 -59 -62 -59 -136 -1 -88 40 -147 104 -147 64 0
105 58 105 150 0 117 -66 175 -150 133z m79 -47 c17 -20 25 -116 12 -148 -15
-41 -44 -52 -73 -29 -20 17 -23 28 -23 89 0 44 5 75 14 85 17 21 54 22 70 3z"/>
<path d="M7220 773 c-8 -3 -22 -12 -31 -20 -14 -12 -17 -12 -22 2 -4 8 -16 15
-27 15 -19 0 -20 -6 -20 -140 l0 -140 25 0 c25 0 25 1 25 93 0 110 13 142 55
142 l30 0 3 -117 3 -118 24 0 25 0 0 123 c0 67 -4 127 -8 133 -8 13 -47 34
-59 33 -4 0 -15 -3 -23 -6z"/>
<path d="M7421 769 c-33 -13 -50 -38 -51 -74 0 -42 12 -56 72 -85 59 -28 75
-60 39 -79 -26 -14 -50 -4 -62 26 -6 18 -15 23 -32 21 -30 -4 -25 -45 10 -77
22 -19 34 -22 72 -18 55 6 81 34 81 87 0 43 -15 59 -82 88 -48 21 -53 27 -42
56 9 24 55 20 61 -4 4 -14 14 -20 34 -20 35 0 38 19 7 54 -26 30 -72 40 -107
25z"/>
<path d="M6020 630 l0 -140 25 0 25 0 0 140 0 140 -25 0 -25 0 0 -140z"/>
<path d="M6750 630 l0 -140 25 0 25 0 0 140 0 140 -25 0 -25 0 0 -140z"/>
</g>
</svg>
