<?xml version="1.0" encoding="UTF-8" standalone="no"?>
<svg
   xmlns:dc="http://purl.org/dc/elements/1.1/"
   xmlns:cc="http://creativecommons.org/ns#"
   xmlns:rdf="http://www.w3.org/1999/02/22-rdf-syntax-ns#"
   xmlns:svg="http://www.w3.org/2000/svg"
   xmlns="http://www.w3.org/2000/svg"
   xmlns:sodipodi="http://sodipodi.sourceforge.net/DTD/sodipodi-0.dtd"
   xmlns:inkscape="http://www.inkscape.org/namespaces/inkscape"
   width="210mm"
   height="297mm"
   viewBox="0 0 210 297"
   version="1.1"
   id="svg8"
   inkscape:version="1.0.2-2 (e86c870879, 2021-01-15)"
   sodipodi:docname="favicon-red.svg">
  <defs
     id="defs2" />
  <sodipodi:namedview
     id="base"
     pagecolor="#ffffff"
     bordercolor="#666666"
     borderopacity="1.0"
     inkscape:pageopacity="0.0"
     inkscape:pageshadow="2"
     inkscape:zoom="0.7"
     inkscape:cx="495.68062"
     inkscape:cy="634.49592"
     inkscape:document-units="mm"
     inkscape:current-layer="layer1"
     inkscape:document-rotation="0"
     showgrid="false"
     inkscape:window-width="2560"
     inkscape:window-height="1361"
     inkscape:window-x="-9"
     inkscape:window-y="-9"
     inkscape:window-maximized="1" />
  <metadata
     id="metadata5">
    <rdf:RDF>
      <cc:Work
         rdf:about="">
        <dc:format>image/svg+xml</dc:format>
        <dc:type
           rdf:resource="http://purl.org/dc/dcmitype/StillImage" />
        <dc:title></dc:title>
      </cc:Work>
    </rdf:RDF>
  </metadata>
  <g
     inkscape:label="Layer 1"
     inkscape:groupmode="layer"
     id="layer1">
    <g
       transform="matrix(0.06067743,-3.1431621e-4,-3.1431621e-4,-0.06067743,5.0665999,248.96331)"
       fill="#000000"
       stroke="none"
       id="g989"
       style="fill:#ff4057;fill-opacity:1">
      <path
         d="M 1480,3294 C 923,3224 443,2885 193,2385 -257,1486 201,393 1158,80 1348,18 1443,5 1685,6 c 177,0 226,3 310,22 338,73 600,215 841,456 236,237 373,483 450,811 27,114 29,132 29,355 0,223 -2,241 -29,355 -75,319 -207,563 -430,794 -237,244 -517,399 -853,472 -76,16 -141,21 -293,24 -107,2 -211,1 -230,-1 z m 398,-155 c 569,-69 1075,-504 1237,-1065 79,-273 79,-575 1,-846 C 2971,729 2557,325 2059,196 1816,133 1545,131 1308,191 1039,258 810,389 610,590 396,803 265,1043 198,1341 c -20,90 -23,131 -23,309 0,178 3,219 23,309 67,298 198,538 412,751 339,340 779,489 1268,429 z"
         id="path931"
         style="fill:#ff4057;fill-opacity:1" />
      <path
         d="m 1566,2526 c -48,-29 -88,-56 -88,-62 1,-5 118,-76 261,-159 l 261,-150 v -312 c 0,-172 2,-313 5,-313 3,0 50,26 105,57 l 100,57 v 316 316 l -264,152 c -144,84 -269,152 -277,151 -8,0 -54,-24 -103,-53 z"
         id="path933"
         style="fill:#ff4057;fill-opacity:1" />
      <path
         d="M 1132,2273 860,2115 v -118 c 0,-104 2,-118 16,-113 8,3 128,72 267,152 139,81 257,147 262,147 6,0 128,-68 272,-151 144,-84 264,-152 267,-152 3,0 6,53 6,118 v 119 l -267,154 c -146,85 -269,155 -272,157 -4,1 -129,-69 -279,-155 z"
         id="path935"
         style="fill:#ff4057;fill-opacity:1" />
      <path
         d="m 2268,1919 -3,-312 -268,-155 -268,-155 98,-58 c 54,-32 103,-58 109,-59 6,0 130,69 275,153 l 264,152 3,315 2,315 -97,55 c -53,30 -100,56 -105,58 -4,2 -9,-137 -10,-309 z"
         id="path937"
         style="fill:#ff4057;fill-opacity:1" />
      <path
         d="M 1128,1963 860,1808 v -308 c 0,-234 3,-310 13,-318 14,-12 187,-112 193,-112 2,0 4,139 4,308 v 308 l 270,154 c 148,85 269,157 270,160 0,7 -197,120 -207,119 -4,0 -128,-70 -275,-156 z"
         id="path939"
         style="fill:#ff4057;fill-opacity:1" />
      <path
         d="m 1235,1712 -100,-58 v -314 -315 l 264,-152 c 145,-84 268,-153 273,-153 10,0 208,110 208,115 0,2 -69,42 -152,91 -84,48 -206,118 -270,156 l -118,69 -2,309 -3,310 z"
         id="path941"
         style="fill:#ff4057;fill-opacity:1" />
      <path
         d="m 1400,1301 v -121 l 38,-23 c 20,-13 141,-83 269,-156 l 232,-133 255,147 c 140,81 262,152 271,158 13,10 15,31 13,130 l -3,117 -268,-155 -269,-155 -261,151 c -144,83 -265,153 -269,156 -5,2 -8,-50 -8,-116 z"
         id="path943"
         style="fill:#ff4057;fill-opacity:1" />
    </g>
  </g>
</svg>
